<svg width="132" height="85" viewBox="0 0 132 85" fill="none" xmlns="http://www.w3.org/2000/svg">
<g clip-path="url(#clip0)">
<path d="M18.9689 5.72418C18.898 6.36557 17.5872 5.52342 16.926 5.38038C16.2832 5.21888 15.7891 5.07818 15.0021 5.07818C12.2135 5.07818 9.81846 6.19252 8.57171 8.15821C7.22888 10.2739 6.53117 11.1921 7.52857 15.6241C8.66323 20.6583 7.80536 25.7872 6.34357 31.3543C5.92036 32.9647 0.638331 32.8424 1.38409 31.3543C4.57074 24.9774 3.28281 13.9215 1.38409 1.07299C1.13932 -0.576621 5.1746 -0.105963 6.34357 1.07299C7.44163 2.18273 6.45569 4.70671 6.45569 4.70671C7.49198 2.86791 8.82559 2.1435 10.3606 1.40983C12.1358 0.563102 14.1786 0.459271 16.1459 0.304692C16.8414 0.24932 17.1273 0.270071 17.6169 0.233157C18.1613 0.193935 18.6418 0.260862 18.9415 0.613856C19.4608 1.22064 19.2297 2.19654 19.2412 2.99712C19.2526 3.91075 18.9689 5.72418 18.9689 5.72418Z" fill="#FFA600"/>
<path d="M34.3349 16.1339C30.3476 16.1339 27.5864 16.5953 26.0491 17.5136C24.5142 18.4318 23.7455 20.0007 23.7455 22.2179C23.7455 23.9851 24.3174 25.3901 25.4612 26.4353C26.621 27.462 28.1949 27.9764 30.1783 27.9764C32.912 27.9764 35.1034 27.0029 36.746 25.0556C38.4091 23.0922 39.2395 20.4875 39.2395 17.2436V16.1339H34.3349ZM44.1716 14.0805C44.0024 20.1022 42.5314 21.4657 44.1716 31.3565C44.4439 32.9923 40.4016 32.5285 39.2395 31.3565C38.1666 30.2721 39.2395 26.7606 39.2395 26.7606C38.114 28.5994 36.7116 29.9583 35.0302 30.8419C33.3511 31.7071 31.2947 32.1409 28.8652 32.1409C25.7907 32.1409 23.3429 31.2757 21.5197 29.5454C19.7148 27.7965 18.8111 25.4617 18.8111 22.5432C18.8111 19.1355 19.9389 16.5676 22.1899 14.8373C24.4592 13.1069 27.838 12.2417 32.324 12.2417H39.2395V11.7549C39.2395 9.46625 38.4892 7.69898 36.9885 6.45542C35.5038 5.19341 33.4129 4.56355 30.7158 4.56355C29.0001 4.56355 27.3278 4.77115 25.7013 5.18413C24.0748 5.59941 22.4004 8.00351 21.0095 7.05066C19.7536 6.18779 20.1013 3.68221 21.0095 2.45481C22.103 0.978232 24.5668 1.22742 26.2642 0.885963C27.9616 0.526047 29.6155 0.346069 31.2236 0.346069C35.5678 0.346069 38.8117 1.48115 40.9552 3.75138C43.101 6.02162 44.2746 10.4722 44.1716 14.0805Z" fill="#FFA600"/>
<path d="M72.8515 13.0792C72.8515 19.1723 71.5887 21.4703 72.8515 31.3565C73.062 33.0015 68.1115 33.0038 67.9194 31.3565C67.2125 25.3533 67.9194 13.2407 67.9194 13.2407C67.9194 10.3752 67.3635 8.23185 66.2563 6.80603C65.1491 5.38252 63.486 4.67195 61.2693 4.67195C58.6065 4.67195 56.8657 5.69633 55.3901 7.25827C54.1114 8.60795 53.7796 10.659 53.409 12.4886C52.1554 18.6556 55.3284 23.4591 52.6656 31.3565C52.1326 32.9346 47.1844 32.9392 47.706 31.3565C50.3459 23.3207 47.5985 8.21575 47.706 1.07512C47.7312 -0.592945 51.4967 -0.103829 52.6656 1.07512C53.7637 2.18486 52.8966 4.84269 52.8966 4.84269C54.0747 3.02235 55.3192 2.4363 56.8199 1.69571C58.531 0.853596 60.2788 0.346043 62.3697 0.346043C65.8194 0.346043 68.4273 1.4258 70.1979 3.58991C71.9662 5.73325 72.8515 8.8986 72.8515 13.0792Z" fill="#FFA600"/>
<path d="M95.9655 15.8639C95.9655 12.2601 95.2242 9.46618 93.7396 7.48203C92.2755 5.50019 90.2098 4.50811 87.547 4.50811C84.9026 4.50811 82.8391 5.50019 81.3544 7.48203C79.8903 9.46618 79.156 12.2601 79.156 15.8639C79.156 19.4515 79.8903 22.2362 81.3544 24.2181C82.8391 26.2022 84.9026 27.192 87.547 27.192C90.2098 27.192 92.2755 26.2022 93.7396 24.2181C95.2242 22.2362 95.9655 19.4515 95.9655 15.8639ZM100.898 27.5981C101.424 31.2433 102.533 34.8241 104.016 38.1879C108.355 48.0441 119.876 55.0578 120.713 65.8068C121.083 70.5364 118.821 75.776 115.339 78.9714C110.307 83.5903 102.613 84.7808 95.8099 84.9861C90.7131 85.1384 85.2983 84.0379 80.9426 81.3662C77.2596 79.1075 74.0662 75.5522 72.4671 71.5147C68.5667 61.6747 67.7111 49.8136 71.0213 39.7545C71.5315 38.2064 73.7229 34.8564 73.5971 36.2845C73.421 38.2617 72.0301 44.8833 72.1903 49.2161C72.4213 55.4546 73.0458 61.94 75.5851 67.6341C77.1864 71.2217 79.5175 74.7839 82.7773 76.9434C86.147 79.1721 90.4546 80.0673 94.4831 79.9842C100.085 79.8689 106.399 78.856 110.577 75.0885C112.956 72.9405 114.53 69.4175 114.342 66.2013C113.749 56.0176 103.199 49.0431 99.2231 39.6599C97.7109 36.0907 95.9655 30.1152 95.9655 28.491V26.0292C94.9475 27.8149 93.6412 29.1485 92.0514 30.0321C90.4615 30.9158 88.5582 31.3565 86.3415 31.3565C82.6608 31.3565 79.6936 29.9421 77.4403 27.1112C75.1893 24.2827 74.0639 20.5336 74.0639 15.8639C74.0639 11.1781 75.1893 7.41974 77.4403 4.58887C79.6936 1.76031 82.6608 0.346049 86.3415 0.346049C88.5582 0.346049 90.4615 0.786726 92.0514 1.67036C93.6412 2.554 94.9475 3.88748 95.9655 5.67091C95.9655 5.67091 94.8926 2.15949 95.9655 1.07513C97.1276 -0.096902 99.7355 -0.096902 100.898 1.07513C107.097 7.32751 99.6371 18.8493 100.898 27.5981Z" fill="#FFA600"/>
<path d="M118.222 4.56355C115.576 4.56355 113.484 5.60863 111.947 7.69891C110.411 9.77227 109.643 12.6201 109.643 16.2423C109.643 19.8661 110.403 22.7231 111.922 24.8134C113.457 26.8868 115.557 27.9234 118.222 27.9234C120.848 27.9234 122.93 26.8775 124.467 24.7857C126.004 22.6954 126.773 19.8476 126.773 16.2423C126.773 12.6554 126.004 9.81693 124.467 7.72665C122.93 5.61792 120.848 4.56355 118.222 4.56355ZM118.222 0.346069C122.51 0.346069 125.878 1.7519 128.326 4.56355C130.775 7.37519 132 11.2681 132 16.2423C132 21.1996 130.775 25.0933 128.326 27.9234C125.878 30.7351 122.51 32.1409 118.222 32.1409C113.913 32.1409 110.535 30.7351 108.088 27.9234C105.657 25.0933 104.441 21.1996 104.441 16.2423C104.441 11.2681 105.657 7.37519 108.088 4.56355C110.535 1.7519 113.913 0.346069 118.222 0.346069Z" fill="#FFA600"/>
<path d="M84.3833 40.0129C83.0451 39.7937 83.5255 44.6618 84.3285 46.759C85.1063 48.7893 87.5356 52.2892 88.716 51.5602C89.8965 50.8288 87.4327 48.5978 86.2683 46.2491C85.1016 43.8981 85.6964 40.2297 84.3833 40.0129Z" fill="#FFA600"/>
<path d="M1.50069 64.8655C1.06147 64.8655 0.701584 64.7363 0.420969 64.4779C0.140355 64.2195 0 63.8565 0 63.3889V39.9483C0 39.4807 0.140355 39.1177 0.420969 38.8593C0.701584 38.6009 1.06147 38.4717 1.50069 38.4717C1.91551 38.4717 2.26321 38.6009 2.54383 38.8593C2.82444 39.1177 2.9648 39.4807 2.9648 39.9483V63.3889C2.9648 63.8565 2.82444 64.2195 2.54383 64.4779C2.26321 64.7363 1.91551 64.8655 1.50069 64.8655ZM9.9924 64.8655C9.55318 64.8655 9.19316 64.7363 8.91254 64.4779C8.63193 64.2195 8.49171 63.8565 8.49171 63.3889V47.811C8.49171 47.3435 8.63193 46.9804 8.91254 46.722C9.19316 46.4636 9.55318 46.3344 9.9924 46.3344C10.4316 46.3344 10.7854 46.4636 11.0538 46.722C11.3222 46.9804 11.4564 47.3435 11.4564 47.811V63.3889C11.4564 63.8811 11.3222 64.2502 11.0538 64.4963C10.7854 64.7424 10.4316 64.8655 9.9924 64.8655ZM9.9924 42.4584C9.40677 42.4584 8.93089 42.2862 8.56488 41.9416C8.19886 41.5971 8.01587 41.1418 8.01587 40.5758C8.01587 40.0344 8.19886 39.5914 8.56488 39.2469C8.93089 38.9024 9.40677 38.7301 9.9924 38.7301C10.578 38.7301 11.0538 38.9024 11.4198 39.2469C11.7858 39.5914 11.9688 40.0344 11.9688 40.5758C11.9688 41.1418 11.7858 41.5971 11.4198 41.9416C11.0538 42.2862 10.578 42.4584 9.9924 42.4584ZM29.8306 47.2574C30.099 46.6667 30.526 46.3714 31.1117 46.3714C31.4777 46.3714 31.8071 46.4945 32.0999 46.7406C32.3927 46.9867 32.539 47.2943 32.539 47.6634C32.539 47.8849 32.4903 48.0817 32.3927 48.254L25.2554 63.758C25.109 64.078 24.8893 64.3302 24.5965 64.5148C24.3037 64.6994 23.9864 64.7916 23.6448 64.7916C23.3276 64.7916 23.0226 64.6994 22.7298 64.5148C22.437 64.3302 22.2052 64.078 22.0344 63.758L14.9336 48.254C14.836 48.0817 14.7871 47.8972 14.7871 47.7003C14.7871 47.3312 14.9518 47.0113 15.2813 46.7406C15.6107 46.4698 15.9707 46.3344 16.3611 46.3344C16.6051 46.3344 16.8429 46.4083 17.0747 46.5559C17.3066 46.7036 17.4834 46.9128 17.6055 47.1835L23.7181 61.0264L29.8306 47.2574ZM44.6177 46.3344C45.6426 46.2606 46.155 46.679 46.155 47.5895C46.155 47.9833 46.0452 48.2971 45.8256 48.5309C45.606 48.7647 45.2277 48.9062 44.6909 48.9554L43.5929 49.0662C41.958 49.2138 40.7439 49.7982 39.9509 50.8195C39.1579 51.8408 38.7614 53.0405 38.7614 54.4187V63.3889C38.7614 63.8811 38.6272 64.2502 38.3588 64.4963C38.0903 64.7424 37.7365 64.8655 37.2973 64.8655C36.8581 64.8655 36.4982 64.7363 36.2176 64.4779C35.937 64.2195 35.7966 63.8565 35.7966 63.3889V47.811C35.7966 47.3435 35.9431 46.9804 36.2359 46.722C36.5287 46.4636 36.8825 46.3344 37.2973 46.3344C37.6877 46.3344 38.0172 46.4636 38.2856 46.722C38.554 46.9804 38.6881 47.3312 38.6881 47.7742V49.8414C39.2006 48.7585 39.9266 47.9341 40.866 47.368C41.8054 46.802 42.8852 46.4698 44.1053 46.3714L44.6177 46.3344ZM62.15 60.5096C62.4184 60.5096 62.6501 60.6204 62.8453 60.8419C63.0406 61.0633 63.1383 61.3463 63.1383 61.6908C63.1383 62.3061 62.7113 62.8721 61.8572 63.3889C60.9788 63.9057 60.0515 64.2934 59.0755 64.5518C58.0994 64.8102 57.1477 64.9394 56.2204 64.9394C53.4631 64.9394 51.2854 64.1149 49.6871 62.466C48.0888 60.8172 47.2896 58.5408 47.2896 55.6369C47.2896 53.7912 47.6434 52.1608 48.351 50.7457C49.0587 49.3307 50.053 48.2294 51.3341 47.4419C52.6152 46.6544 54.0731 46.2606 55.708 46.2606C58.0261 46.2606 59.8684 47.0236 61.2349 48.5494C62.6014 50.0751 63.2846 52.1423 63.2846 54.7509C63.2846 55.2431 63.187 55.6 62.9918 55.8214C62.7966 56.0429 62.4794 56.1537 62.0401 56.1537H50.2544C50.474 60.3865 52.4626 62.503 56.2204 62.503C57.1721 62.503 57.9896 62.3738 58.6728 62.1154C59.356 61.857 60.0881 61.5063 60.869 61.0633C61.5034 60.6941 61.9304 60.5096 62.15 60.5096ZM55.7447 48.5862C54.183 48.5862 52.9324 49.0785 51.993 50.0629C51.0535 51.0472 50.4984 52.4376 50.3275 54.2341H60.6859C60.6371 52.413 60.1857 51.0164 59.3317 50.0443C58.4776 49.0723 57.282 48.5862 55.7447 48.5862Z" fill="#FFA600"/>
</g>
<defs>
<clipPath id="clip0">
<rect width="132" height="85" fill="white"/>
</clipPath>
</defs>
</svg>
